<svg width="16" height="17" viewBox="0 0 16 17" fill="none" xmlns="http://www.w3.org/2000/svg">
<g id="mdi:cable-data">
<path id="Vector" d="M4.70008 2.83327C4.26147 3.27305 4.01515 3.86882 4.01515 4.48994C4.01515 5.11105 4.26147 5.70682 4.70008 6.1466L10.3601 11.7999C10.7467 12.1933 10.7467 12.8333 10.3601 13.2133C9.96675 13.6066 9.33341 13.6066 8.94008 13.2133L6.11341 10.3866L6.82008 9.67994L4.46674 7.31994L4.22675 7.55994L3.28674 6.61327C3.15957 6.48827 2.98839 6.41823 2.81008 6.41823C2.63176 6.41823 2.46058 6.48827 2.33341 6.61327L1.40008 7.55994C1.14008 7.83327 1.14008 8.23994 1.40008 8.49994L2.33341 9.43994L2.10674 9.67994L4.46674 12.0333L5.17341 11.3266L8.00008 14.1666C8.4403 14.5992 9.03285 14.8417 9.65008 14.8417C10.2673 14.8417 10.8599 14.5992 11.3001 14.1666C12.2134 13.2466 12.2134 11.7666 11.3001 10.8599L5.64008 5.19994C5.25341 4.8066 5.25341 4.1666 5.64008 3.7866C6.03341 3.39327 6.66675 3.39327 7.06008 3.7866L9.88675 6.61327L9.18008 7.31994L11.5334 9.67994L11.7734 9.43994L12.7134 10.3866C12.9734 10.6466 13.4001 10.6466 13.6667 10.3866L14.6001 9.43994C14.8601 9.1666 14.8601 8.75994 14.6001 8.49994L13.6667 7.55994L13.8934 7.31994L11.5334 4.9666L10.8267 5.67327L8.00008 2.83327C7.55985 2.40063 6.96731 2.1582 6.35008 2.1582C5.73284 2.1582 5.1403 2.40063 4.70008 2.83327ZM1.87341 8.0266L2.81341 7.0866L3.76008 8.0266L2.81341 8.97327M12.2401 8.97327L13.1867 8.0266L14.1267 8.97327L13.1867 9.91327L12.2401 8.97327Z" fill="#EB455F"/>
</g>
</svg>
