<svg width="24" height="25" viewBox="0 0 24 25" fill="none" xmlns="http://www.w3.org/2000/svg">
<g id="mingcute:chat-3-line" clip-path="url(#clip0_189_17600)">
<g id="Group">
<path id="Vector" fill-rule="evenodd" clip-rule="evenodd" d="M12 5.5C7.403 5.5 4 8.573 4 12C4 14.014 5.141 15.872 7.042 17.096C7.78 17.572 7.981 18.499 8.014 19.318C8.767 19.008 9.272 18.158 10.186 18.332C10.768 18.442 11.375 18.5 12 18.5C16.597 18.5 20 15.427 20 12C20 8.573 16.597 5.5 12 5.5ZM2 12C2 7.143 6.656 3.5 12 3.5C17.344 3.5 22 7.143 22 12C22 16.857 17.344 20.5 12 20.5C11.347 20.5 10.708 20.447 10.089 20.345C9.996 20.418 9.836 20.55 9.639 20.689C9.07 21.09 8.249 21.5 7 21.5C6.73478 21.5 6.48043 21.3946 6.29289 21.2071C6.10536 21.0196 6 20.7652 6 20.5C6 19.95 6.143 19.266 5.906 18.744C3.577 17.223 2 14.798 2 12Z" fill="#C52332"/>
</g>
</g>
<defs>
<clipPath id="clip0_189_17600">
<rect width="24" height="24" fill="white" transform="translate(0 0.5)"/>
</clipPath>
</defs>
</svg>
